<svg width="36" height="36" viewBox="0 0 36 36" fill="none" xmlns="http://www.w3.org/2000/svg">
<path d="M18.0014 0C10.7206 0 4.15782 4.38588 1.3719 11.1117C-1.41403 17.8375 0.125932 25.5793 5.27379 30.7271C10.4216 35.875 18.1634 37.415 24.8892 34.629C31.6151 31.8431 36.0009 25.2803 36.0009 17.9995C36.0009 8.05878 27.9422 0 18.0014 0ZM18.0014 27.5992C15.2425 27.5922 12.6196 26.3993 10.8016 24.3233V26.3993H8.4017V20.3994H14.4015V22.7994H12.6496C14.6415 25.0133 17.7914 25.7723 20.5734 24.7083C23.3553 23.6443 25.1952 20.9774 25.2012 17.9995H27.6012C27.6012 23.3014 23.3033 27.5992 18.0014 27.5992ZM27.6012 15.5996H21.6013V13.1996H23.3653C21.3743 10.9767 18.2194 10.2117 15.4315 11.2767C12.6436 12.3417 10.8026 15.0156 10.8016 17.9995H8.4017C8.4077 14.0096 10.8806 10.4387 14.6145 9.03075C18.3474 7.62279 22.5623 8.67076 25.2022 11.6637V9.59973H27.6022V15.5996H27.6012Z" fill="#2C2C2C"/>
</svg>
